<svg width="18" height="20" viewBox="0 0 18 20" fill="none" xmlns="http://www.w3.org/2000/svg">
<path d="M0.65367 9.51617C0.27867 10.0117 0.0710819 10.6188 0.0710819 11.2505C0.0710818 12.2528 0.63135 13.2014 1.53313 13.7305C1.76529 13.8666 2.02961 13.9383 2.29876 13.938L7.65144 13.938L7.51751 16.6813C7.48626 17.3443 7.72063 17.9738 8.17599 18.4537C8.39946 18.6902 8.66906 18.8784 8.96814 19.0066C9.26722 19.1349 9.58942 19.2004 9.91483 19.1992C11.0755 19.1992 12.1023 18.418 12.4104 17.2996L14.3278 10.3577L14.3345 10.3577L14.3345 0.804115L3.79206 0.804114C3.58671 0.804114 3.38581 0.844292 3.20055 0.924649C2.13805 1.37777 1.45278 2.41572 1.45278 3.56751C1.45278 3.84876 1.49296 4.12554 1.57331 4.3934C1.19831 4.88893 0.990726 5.49608 0.990726 6.12777C0.990726 6.40902 1.0309 6.68581 1.11126 6.95367C0.73626 7.4492 0.52867 8.05634 0.52867 8.68804C0.533135 8.96929 0.573314 9.24831 0.65367 9.51617ZM17.9282 9.6434L17.9282 1.5184C17.9282 1.12331 17.609 0.804115 17.2139 0.804115L15.763 0.804115L15.763 10.3577L17.2139 10.3577C17.609 10.3577 17.9282 10.0385 17.9282 9.6434Z" fill="#F76659"/>
</svg>
