<svg width="18" height="20" viewBox="0 0 18 20" fill="none" xmlns="http://www.w3.org/2000/svg">
<path d="M17.3463 10.4838C17.7213 9.9883 17.9289 9.38115 17.9289 8.74946C17.9289 7.74723 17.3687 6.79856 16.4669 6.26955C16.2347 6.13338 15.9704 6.06171 15.7012 6.06196H10.3486L10.4825 3.31865C10.5137 2.65571 10.2794 2.02624 9.82401 1.54633C9.60054 1.30979 9.33094 1.12159 9.03186 0.993354C8.73278 0.865122 8.41058 0.799587 8.08517 0.800798C6.92446 0.800798 5.89767 1.58205 5.58963 2.70035L3.67222 9.64231H3.66553V19.1959H14.2079C14.4133 19.1959 14.6142 19.1557 14.7995 19.0753C15.862 18.6222 16.5472 17.5843 16.5472 16.4325C16.5472 16.1512 16.507 15.8745 16.4267 15.6066C16.8017 15.1111 17.0093 14.5039 17.0093 13.8722C17.0093 13.591 16.9691 13.3142 16.8887 13.0463C17.2637 12.5508 17.4713 11.9437 17.4713 11.312C17.4669 11.0307 17.4267 10.7517 17.3463 10.4838ZM0.0717773 10.3566V18.4816C0.0717773 18.8767 0.390974 19.1959 0.786063 19.1959H2.23696V9.64231H0.786063C0.390974 9.64231 0.0717773 9.96151 0.0717773 10.3566Z" fill="#38D9B9"/>
</svg>
